<svg width="85" height="100" viewBox="0 0 85 100" fill="none" xmlns="http://www.w3.org/2000/svg">
<path d="M41.9373 81.8394L41.7473 81.6855L40.3204 77.252L39.6086 75.4047L38.1033 71.7101L35.3822 66.2914L34.0559 64.0746L31.7469 60.6264L29.7536 58.0426L26.8059 55.0845L24.7248 53.4567L23.0076 52.3427L21.6188 51.5894L19.5732 50.7554L17.7074 50.1766L20.7997 48.0941L22.2716 46.9207L23.7636 45.3555L24.6776 43.9703L25.3945 42.2015L25.6787 40.563L25.6103 39.2621L25.542 37.9613L24.8935 35.257L24.0634 32.7382L23.538 31.4114L23.0127 30.0845L21.2448 26.4675L20.0892 24.4195L19.3474 23.188L17.4944 20.2323L14.2198 15.3447L14.3137 15.2505L16.9974 17.2788L18.7146 18.6141L22.3942 21.7024L25.9512 24.8913L28.527 27.2509L32.5821 31.3162L34.0626 32.9172L36.6332 35.996L37.8566 37.7201L38.3126 38.4184L38.7687 39.1166V39.2953L37.4808 38.0798L35.4915 36.5655L32.3893 34.459L30.7346 33.625L28.8508 32.87L28.4128 32.7875L27.9749 32.705V32.8485L28.6076 34.2718L29.3315 36.2423L29.5118 37.2744L29.692 38.3066L29.6911 40.3062L29.3241 42.5781L28.6108 44.3811L27.3762 46.5353L26.3373 47.8185L25.0017 49.2103L25.1395 49.4341L27.3003 50.7509L29.2628 52.2798L31.116 53.9762L33.5176 56.6094L34.8513 58.2865L36.6612 60.8727L38.3548 63.5821L39.8005 66.1683L40.7377 67.8925L41.1444 68.6929H43.1576L44.812 65.6757L47.0251 61.9811L48.2412 60.1338L49.7357 58.0402L51.9709 55.3309L54.4071 52.8481L56.4923 51.1894L59.3133 49.2993L59.3787 49.2717L57.8173 47.649L56.2871 45.4057L55.307 43.3059L54.9947 42.0523L54.6824 40.7988L54.6729 37.9663L54.9963 36.7348L55.3198 35.5032L56.4308 32.8143L56.3176 32.7007L55.143 32.9899L53.4001 33.7098L51.586 34.7313L50.2368 35.6118L47.0478 37.9312L45.6372 39.3133V39.0914L47.4718 36.3487L50.7124 32.4246L56.8603 26.2902L59.6628 23.8039L63.1157 20.7543L67.0741 17.5231L68.5126 16.4028L70.1684 15.2231V15.341L65.9296 21.7103L64.6617 23.8039L63.1303 26.5133L62.1745 28.3606L61.0545 30.8236L60.3454 32.6709L59.9391 33.9025L59.5328 35.134L59.3311 35.8222L59.1295 36.5105L58.9462 37.7311L58.763 38.9517L58.7622 39.8653L58.7615 40.7788L59.0419 42.4L59.8648 44.2153L60.4041 44.9702L60.9435 45.7252L62.993 47.7193L66.6321 50.1174L66.57 50.1798L66.5079 50.2421L63.6063 51.2147L61.4332 52.3274L59.8754 53.2776L57.9642 54.7116L55.4188 57.1785L53.4061 59.6415L51.5813 62.1046L50.1945 64.3213L48.4497 67.4002L46.0376 72.3263L45.4744 73.6809L44.9113 75.0356L44.0701 77.2524L43.0924 80.208L42.5639 81.9937H42.1272L41.9372 81.8398L41.9373 81.8394ZM35.9165 53.9038L35.456 53.7948L34.2651 53.1889L32.2649 51.2995L30.7851 49.3277L30.8424 49.2701L30.8998 49.2126L32.3294 49.5239L34.3769 50.5962L35.8016 51.5676L36.5591 52.4902L36.7619 53.1099L36.9647 53.7296L37.0213 53.8835L37.0779 54.0375L36.377 54.0127L35.9165 53.9038ZM47.5388 53.6372L47.62 53.237L47.7328 52.7917L47.8457 52.3465L49.0104 51.2528L50.5833 50.3273L52.1994 49.5801L53.5275 49.1107L53.5691 49.1525L53.6107 49.1943L51.6565 51.7877L50.3064 53.0266L49.1647 53.6673L47.9233 54.0375H47.4577L47.5388 53.6372Z" fill="url(#paint0_linear_78_19)"/>
<defs>
<linearGradient id="paint0_linear_78_19" x1="42.1941" y1="15.2231" x2="42.1941" y2="81.9937" gradientUnits="userSpaceOnUse">
<stop stop-color="#FF5C00"/>
<stop offset="1" stop-color="#FFE600"/>
</linearGradient>
</defs>
</svg>
